<svg id="Capa_1" enable-background="new 0 0 512 512" height="512" viewBox="0 0 512 512" width="512" xmlns="http://www.w3.org/2000/svg"><g><path d="m410.251 7.989h30v45h-30z" fill="#b36b24" transform="matrix(.707 -.707 .707 .707 102.994 309.628)"/><path d="m466.511 64.249h30v45h-30z" fill="#99481f" transform="matrix(.707 -.707 .707 .707 79.69 365.888)"/><path d="m367.824 50.416h30v45h-30z" fill="#b36b24" transform="matrix(.707 -.707 .707 .707 60.568 292.054)"/><path d="m424.084 106.676h30v45h-30z" fill="#99481f" transform="matrix(.707 -.707 .707 .707 37.264 348.314)"/><path d="m290.172 407.64c3.513-21.827 18.047-40.159 38.052-49.57 10.324-4.857 19.878-11.462 28.259-19.843 37.252-37.252 39.435-97.671 8.901-145.949l-36.973-36.974-278.567 306.852c60.666 60.666 152.881 66.81 205.968 13.723 18.863-18.863 30.245-42.666 34.36-68.239z" fill="#b36b24"/><path d="m319.727 146.619c-48.279-30.538-108.701-28.356-145.955 8.898-8.381 8.381-14.986 17.935-19.843 28.259-9.411 20.005-27.742 34.539-49.57 38.052-25.573 4.115-49.376 15.497-68.239 34.36-53.087 53.087-46.943 145.302 13.723 205.968l292.709-292.709z" fill="#e68a2e"/><path d="m512 45.654-22.827-22.827-242.34 214.055 36.969 36.97z" fill="#662828"/><path d="m202.301 109.371h322.72v32.282h-322.72z" fill="#99481f" transform="matrix(.707 -.707 .707 .707 17.763 293.909)"/><path d="m280.204 231.796-60.104 31.82-31.82 60.104c25.343 25.343 66.58 25.344 91.924 0s25.343-66.58 0-91.924z" fill="#99481f"/><path d="m188.28 231.796c-25.344 25.344-25.344 66.58 0 91.924l91.924-91.924c-25.344-25.343-66.58-25.343-91.924 0z" fill="#b36b24"/><path d="m203.029 400.895-45.962-45.962-17.678 3.536-3.536 17.677 45.963 45.963z" fill="#f2e9e6"/><path d="m108.479 310.059h30v65h-30z" fill="#fff5f5" transform="matrix(.707 -.707 .707 .707 -206.06 187.646)"/><path d="m258.991 302.507c13.646-13.646 13.646-35.851 0-49.497l-38.891 10.606-10.607 38.891c13.647 13.646 35.851 13.646 49.498 0z" fill="#662828"/><path d="m209.493 253.01c-13.646 13.646-13.646 35.851 0 49.497l49.497-49.497c-13.646-13.647-35.85-13.647-49.497 0z" fill="#99481f"/></g></svg>